<svg width="512" height="512" viewBox="0 0 512 512" fill="none" xmlns="http://www.w3.org/2000/svg"><rect width="512" height="512" rx="112" fill="url(#bg)"/><circle cx="256" cy="242" r="154" fill="white"/><path d="M166 320V164h99c43 0 71 25 71 64 0 40-29 66-73 66h-44v26h-53Zm53-69h37c16 0 26-9 26-23 0-14-10-23-26-23h-37v46Z" fill="#0A91E8"/><path d="M340 320V205h50v115h-50Zm-3-149c0-16 12-27 28-27s28 11 28 27-12 28-28 28-28-12-28-28Z" fill="#F89A2A"/><path d="M150 374c34 28 69 42 106 42s72-14 106-42" stroke="white" stroke-width="18" stroke-linecap="round"/><defs><linearGradient id="bg" x1="54" y1="35" x2="456" y2="475"><stop stop-color="#003E86"/><stop offset=".52" stop-color="#0A82DC"/><stop offset="1" stop-color="#022F61"/></linearGradient></defs></svg>
